<?xml version="1.0" standalone="no"?>
<!DOCTYPE svg PUBLIC "-//W3C//DTD SVG 20010904//EN"
 "http://www.w3.org/TR/2001/REC-SVG-20010904/DTD/svg10.dtd">
<svg version="1.0" xmlns="http://www.w3.org/2000/svg"
 width="511.000000pt" height="511.000000pt" viewBox="0 0 511.000000 511.000000"
 preserveAspectRatio="xMidYMid meet">
<metadata>
Created by potrace 1.15, written by Peter Selinger 2001-2017
</metadata>
<g transform="translate(0.000000,511.000000) scale(0.100000,-0.100000)"
fill="#000000" stroke="none">
<path d="M2354 4740 c-62 -4 -120 -10 -130 -14 -11 -3 -41 -8 -69 -12 -67 -9
-267 -60 -335 -85 -187 -71 -349 -148 -442 -209 -32 -22 -62 -40 -64 -40 -25
0 -271 -209 -379 -322 -109 -113 -255 -295 -255 -317 0 -6 -4 -11 -10 -11 -5
0 -10 -4 -10 -10 0 -5 -11 -25 -25 -45 -47 -70 -164 -321 -201 -430 -71 -210
-114 -444 -114 -615 l0 -95 -60 -80 c-140 -187 -195 -343 -194 -550 1 -99 5
-130 24 -180 33 -86 68 -143 119 -195 24 -25 38 -36 30 -25 -12 18 -12 19 1 9
17 -12 59 -12 81 1 12 7 12 6 1 -7 -8 -10 -20 -14 -30 -11 -15 6 -15 4 -4 -10
8 -9 20 -13 29 -10 13 5 15 1 10 -19 -6 -23 -2 -26 75 -52 49 -16 114 -30 164
-33 46 -3 81 -9 79 -14 -3 -4 -2 -9 2 -11 5 -1 30 -36 57 -76 140 -209 323
-394 562 -570 39 -29 75 -52 79 -52 4 0 19 -8 33 -19 44 -31 258 -141 275
-141 8 0 17 -3 19 -7 10 -25 336 -122 493 -148 17 -3 46 -8 65 -12 19 -3 140
-8 267 -10 200 -4 251 -2 365 16 120 18 167 29 333 76 189 54 483 202 650 330
166 126 383 342 471 470 228 328 338 581 395 900 11 61 22 121 24 135 10 48
13 466 4 530 -17 123 -19 135 -25 165 -37 192 -101 388 -182 555 -51 105 -149
267 -190 315 -12 14 -22 29 -22 33 0 4 -12 21 -27 38 -16 16 -41 48 -58 70
-56 74 -199 215 -300 295 -55 44 -109 87 -119 96 -11 9 -35 25 -55 36 -20 11
-44 27 -53 35 -31 26 -207 117 -333 172 -70 31 -269 95 -335 109 -30 6 -66 14
-80 17 -142 30 -433 46 -606 34z m426 -50 c84 -11 227 -36 280 -50 57 -14 268
-81 297 -94 221 -96 465 -244 593 -359 20 -18 57 -52 83 -75 464 -420 731
-1111 678 -1755 -24 -298 -93 -541 -231 -817 -234 -468 -612 -818 -1105 -1025
-244 -102 -483 -153 -765 -162 -287 -8 -526 27 -795 119 -101 34 -365 157
-365 170 0 4 -5 8 -11 8 -22 0 -216 136 -313 220 -154 132 -279 272 -394 442
-40 58 -40 68 -1 68 102 0 280 102 364 208 91 117 88 112 70 112 -9 0 -49 -34
-87 -75 -77 -82 -159 -136 -241 -159 -66 -19 -168 -29 -184 -19 -16 11 -103
189 -143 293 -18 47 -37 94 -41 105 -10 23 -65 245 -72 290 -3 17 -10 60 -17
97 -11 60 -10 70 9 113 31 71 103 166 171 228 109 98 230 147 365 147 154 0
248 -59 285 -177 11 -36 20 -93 20 -129 0 -57 2 -64 20 -64 11 0 20 2 20 4 0
6 90 398 96 419 8 26 -28 22 -55 -7 -46 -49 -68 -50 -177 -14 -92 31 -108 33
-224 32 -108 -1 -137 -4 -210 -28 -96 -31 -208 -88 -277 -141 -25 -19 -50 -35
-55 -35 -15 0 0 162 33 342 170 932 927 1646 1869 1763 126 15 405 18 510 5z
m-2430 -2557 c27 -170 92 -372 176 -552 30 -63 54 -116 54 -119 0 -13 -80 14
-124 43 -93 59 -149 139 -176 247 -19 74 -8 277 19 376 13 45 27 82 31 82 4 0
13 -35 20 -77z"/>
<path d="M2300 4108 c0 -3 -3 -13 -6 -21 -4 -11 7 -15 50 -19 36 -3 63 -12 77
-24 38 -34 29 -78 -106 -539 -25 -88 -69 -239 -97 -335 -97 -338 -111 -364
-207 -379 -28 -4 -55 -8 -59 -7 -4 1 -8 -7 -10 -17 -3 -16 25 -17 524 -15
l527 3 63 182 c34 100 59 184 56 187 -15 16 -35 1 -63 -49 -41 -74 -137 -168
-202 -199 -92 -45 -158 -56 -329 -56 -147 0 -159 1 -179 21 -17 17 -20 28 -14
57 8 45 131 477 146 511 10 24 10 24 131 18 136 -7 161 -17 185 -75 14 -33 12
-97 -4 -139 -4 -11 0 -14 17 -11 21 3 29 23 86 219 81 284 80 279 57 279 -14
0 -27 -16 -43 -49 -28 -60 -71 -104 -125 -127 -50 -22 -275 -33 -275 -15 0 11
49 185 131 465 l21 69 180 -6 c173 -5 183 -6 237 -34 74 -37 105 -92 96 -170
-6 -49 -5 -53 14 -53 16 0 24 11 35 53 30 105 69 268 64 272 -7 7 -978 11
-978 3z"/>
<path d="M3613 4078 c-12 -13 -39 -72 -61 -133 -42 -115 -432 -1189 -571
-1575 -45 -123 -82 -240 -83 -259 -1 -28 5 -40 35 -66 26 -22 35 -37 31 -51
-4 -15 2 -23 19 -31 20 -10 35 -7 80 11 31 12 62 27 69 33 7 6 51 29 98 51 47
22 119 56 159 76 41 20 76 34 78 32 5 -5 11 -294 12 -564 l1 -192 26 -23 c35
-30 50 -32 202 -29 l133 3 20 32 c19 31 19 45 13 416 l-7 383 23 -7 c13 -4 59
-25 101 -46 43 -22 81 -39 85 -39 7 0 98 -43 219 -102 67 -33 83 -38 103 -28
19 8 23 16 18 33 -3 12 2 43 11 69 l17 47 -118 328 c-143 397 -175 487 -192
533 -28 76 -87 240 -123 340 -21 58 -86 236 -144 395 -58 160 -108 300 -111
312 -4 12 -16 33 -27 47 -27 35 -86 36 -116 4z m89 -155 c35 -103 301 -828
321 -875 9 -22 12 -38 6 -38 -6 0 -94 43 -197 97 l-187 96 -174 -106 c-95 -59
-175 -107 -176 -107 -2 0 7 28 20 63 13 34 40 105 59 157 19 52 75 205 124
340 49 135 106 291 127 348 20 56 40 102 44 102 4 0 19 -35 33 -77z m64 -929
c241 -125 336 -178 345 -196 6 -10 23 -53 38 -96 15 -42 54 -147 85 -232 110
-296 129 -350 124 -355 -3 -3 -61 21 -129 54 -383 183 -442 211 -444 209 -2
-2 4 -209 12 -461 8 -252 13 -464 10 -472 -5 -11 -33 -14 -131 -14 l-126 0 -2
42 c0 23 0 234 2 470 2 278 -1 427 -7 427 -6 0 -93 -40 -194 -88 -305 -146
-369 -176 -374 -171 -2 3 20 70 49 150 30 79 85 227 122 329 37 102 75 192 83
201 9 9 86 58 171 109 85 52 175 106 199 122 25 15 48 28 52 28 4 0 56 -25
115 -56z"/>
<path d="M1625 3398 c-155 -17 -273 -120 -311 -269 -13 -51 -14 -72 -5 -120
21 -103 44 -139 192 -295 231 -244 262 -291 261 -406 -1 -50 -7 -78 -26 -115
-54 -104 -117 -142 -238 -143 -134 0 -227 49 -283 151 -27 49 -30 65 -33 167
-3 84 -7 112 -17 112 -16 0 -15 2 -50 -155 -14 -66 -37 -168 -51 -226 -13 -58
-24 -108 -24 -112 0 -17 41 -5 51 15 32 59 75 62 205 16 195 -69 397 -44 519
64 108 94 159 260 120 393 -25 87 -70 147 -231 312 -80 81 -161 171 -180 199
-68 98 -55 210 31 282 97 79 280 66 370 -26 60 -62 80 -114 79 -209 -1 -72 1
-83 16 -83 18 0 17 -2 70 225 12 50 28 119 37 154 13 53 13 65 2 72 -10 6 -25
-4 -50 -31 -51 -56 -69 -57 -179 -14 -105 41 -184 53 -275 42z"/>
</g>
</svg>
